<svg height="700pt" preserveAspectRatio="xMidYMid meet" viewBox="0 0 700 700" width="700pt" xmlns="http://www.w3.org/2000/svg"><g transform="matrix(.1 0 0 -.1 0 700)"><path d="m3393 6988c-6-7-36-62-68-123-33-60-76-141-97-180-84-152-94-191-71-262 17-50 77-108 127-121 42-12 99-6 144 15 48 23 59 39 192 288 24 44 46 85 50 90 4 6 33 60 65 120 32 61 61 115 66 120 4 6 12 23 18 38l11 27h-214c-159 0-216-3-223-12z"/><path d="m4314 6250c-155-31-189-44-228-90-66-80-55-195 27-266l33-30-23-49c-37-80-25-164 30-223 91-97 255-68 316 57 9 20 57 112 105 204 103 197 113 243 74 316-31 57-90 99-148 104-25 3-108-8-186-23z"/><path d="m3480 6090c-38-8-38-8-238-46-128-24-136-25-169-9-53 25-133 16-185-21-46-33-104-131-114-192-19-120 97-236 215-216 24 4 251 47 311 59 14 3 77 14 140 26 148 27 193 43 234 85 132 135-5 355-194 314z"/><path d="m6618 5545c-2-2-41-6-88-9-47-4-105-9-130-11-25-3-85-7-135-10-287-16-305-19-357-67-45-43-61-85-56-149 5-73 42-130 105-160 41-20 53-21 188-15 80 4 157 9 172 11 16 2 75 6 133 10 58 3 121 8 140 10 19 3 61 7 94 10 32 3 74 12 93 21 106 51 141 206 65 289-48 54-81 69-154 71-37 1-68 0-70-1z"/><path d="m5043 5455c-26-12-57-35-69-51-11-16-59-139-106-274-69-197-85-254-82-289 5-56 30-98 83-138 36-28 51-33 96-33 63 0 111 18 146 57 34 36 37 43 94 208 26 77 52 144 57 150 4 5 33 10 64 12 167 7 252 189 147 314-48 57-82 66-240 67-126 0-147-3-190-23z"/><path d="m3910 5274c-25-7-59-26-75-42-35-34-32-29-222-401-144-282-145-285-140-338 15-142 169-220 288-145 49 31 67 62 259 437 57 110 107 207 111 215 30 58 27 146-6 196-45 70-134 102-215 78z"/><path d="m4655 4356c-65-33-84-63-138-221-25-71-77-221-116-333s-71-219-71-238c0-135 156-227 279-165 58 30 81 72 151 271 34 96 84 238 111 315 57 161 66 208 49 259-37 114-159 165-265 112z"/><path d="m3255 4051c-62-28-59-24-205-306-45-88-109-211-142-274-63-119-73-162-56-231 35-136 235-181 323-72 11 14 49 82 86 151 36 69 109 210 162 313 102 194 116 239 94 303-37 110-156 163-262 116z"/><path d="m4229 3080c-65-19-111-74-141-165-16-47-95-274-175-500-40-112-44-165-14-222 70-139 265-140 336-2 9 16 52 132 96 257 157 443 154 435 136 502-26 100-138 161-238 130z"/><path d="m2665 2850c-76-17-104-50-197-230-259-499-251-482-252-536-1-173 216-260 327-132 16 18 63 101 106 183 42 83 114 222 160 310 86 166 98 206 79 273-26 94-127 154-223 132z"/><path d="m3760 1785c-72-33-94-65-145-214-116-339-113-331-170-386-59-57-71-92-62-171 7-61 42-110 103-140 43-21 60-24 110-19 149 14 194 52 247 211 21 60 42 118 47 129 4 11 21 56 35 100 15 44 43 123 62 175 40 110 43 163 13 224-41 85-156 129-240 91z"/><path d="m1991 1618c-51-25-77-64-170-248-35-69-76-147-91-175-65-119-129-253-139-288-14-54 7-129 49-173 73-75 197-76 269-2 17 17 63 95 102 172 40 78 89 173 109 211 149 279 163 320 140 390-37 113-162 166-269 113z"/><path d="m2755 1095c-38-8-187-35-330-60s-271-51-285-58c-132-62-144-251-21-332 47-32 96-37 189-20 43 7 93 16 112 19 19 4 58 11 85 16 28 5 64 12 80 14 28 5 151 26 235 41 155 27 205 60 230 151 21 74 6 129-49 184-64 64-107 71-246 45z"/></g></svg>