<svg enable-background="new 0 0 512 512" viewBox="0 0 512 512" xmlns="http://www.w3.org/2000/svg"><path d="m443.219 68.781c-63.726-63.726-167.046-63.726-230.771 0-58.318 58.318-63.255 149.79-14.834 213.736l-25.117 25.117 31.87 31.87 25.117-25.117c63.946 48.421 155.418 43.484 213.736-14.834 63.725-63.727 63.725-167.046-.001-230.772z" fill="#005189"/><circle cx="327.833" cy="184.167" fill="#70c4ea" r="133.074"/><path d="m237.851 105.901c51.969-51.969 136.227-51.969 188.195 0 14.373 14.373 24.752 31.222 31.174 49.168-5.25-24.028-17.178-46.889-35.86-65.571-51.969-51.969-136.227-51.969-188.196 0-37.596 37.596-47.974 92.085-31.174 139.028-9.354-42.812 2.574-89.339 35.861-122.625z" fill="#00a7e0"/><path d="m37.651 474.349c-15.283-15.283-21.129-34.444-12.993-42.581l142.057-130.425c8.137-8.137 21.482-8.106 36.764 7.177 15.283 15.283 15.313 28.628 7.177 36.764l-130.424 142.058c-8.137 8.136-27.298 2.29-42.581-12.993z" fill="#1f356b"/><path d="m53.165 405.596 53.239 53.239 64.225-69.953-47.511-47.511z" fill="#5bc0a4"/></svg>